<?xml version="1.0" encoding="utf-8"?>
<!-- Generator: Adobe Illustrator 19.0.0, SVG Export Plug-In . SVG Version: 6.00 Build 0)  -->
<svg version="1.1" xmlns="http://www.w3.org/2000/svg" xmlns:xlink="http://www.w3.org/1999/xlink" x="0px" y="0px"
	 viewBox="0 0 500 500" style="enable-background:new 0 0 500 500;" xml:space="preserve">
<style type="text/css">
	.st0{display:none;}
	.st1{display:inline;fill:none;stroke:#000000;stroke-miterlimit:10;}
	.st2{display:inline;}
	.st3{display:inline;fill:#FFFFFF;stroke:#000000;stroke-miterlimit:10;}
	.st4{fill:none;stroke:#000000;stroke-miterlimit:10;}
	.st5{fill:#FFFFFF;stroke:#000000;stroke-miterlimit:10;}
	.st6{display:inline;fill:#FFFFFF;}
</style>
<g id="_x31_Hangpost" class="st0">
	<line id="XMLID_1_" class="st1" x1="304.7" y1="325.3" x2="304.7" y2="111.3"/>
	<line id="XMLID_2_" class="st1" x1="304.7" y1="111.3" x2="196.9" y2="111.3"/>
</g>
<g id="_x36_Noose" class="st0">
	<g id="XMLID_14_" class="st2">
		<g id="XMLID_27_">
			<path id="XMLID_31_" d="M194.5,111.4c-0.2,8.7-0.4,17.4-0.7,26.1c-0.2,9-2.3,16.6-5.4,25c-4.1,11.1-14.1,29.7-2.6,39.6
				c6.9,6,20.6,6.1,27.8,0.6c7.8-6,9.8-23.2,3.4-30.6c-2.2-2.5-5.2-4.1-7.9-6c-3.3-2.3-6.2-5.2-8.4-8.6c-4.1-6.4-5.5-13.9-4.4-21.4
				c0-0.3-2.8-0.1-2.9,0.8c-1.1,7.2,0.2,14.5,4,20.8c3.5,5.7,8.5,8.7,13.6,12.6c6.2,4.6,6.9,11.6,6.3,18.9c-0.3,3.5-1.1,7.1-3,10.1
				c-3.7,6-11.1,7-17.6,5.7c-22.1-4.3-10.4-29.7-5.5-42.9c2.7-7.5,5.1-14.5,5.4-22.5c0.4-9.6,0.5-19.2,0.7-28.8
				C197.4,110.2,194.5,110.6,194.5,111.4L194.5,111.4z"/>
		</g>
	</g>
</g>
<g id="_x32_Head" class="st0">
	<circle id="XMLID_3_" class="st3" cx="196.8" cy="167.7" r="28.5"/>
	<circle id="XMLID_5_" class="st2" cx="187.4" cy="160.4" r="5.6"/>
	<circle id="XMLID_7_" class="st2" cx="206.4" cy="160.4" r="5.6"/>
	<path id="XMLID_6_" class="st3" d="M185.8,183.9c9.4-8.7,14.3-8.6,22.3-0.6"/>
</g>
<g id="_x33_Body" class="st0">
	<line id="XMLID_8_" class="st1" x1="196.4" y1="197" x2="196.4" y2="270.7"/>
</g>
<g id="_x34_Arms" class="st0">
	<line id="XMLID_9_" class="st1" x1="196.4" y1="210.7" x2="168.5" y2="238.5"/>
	<line id="XMLID_11_" class="st1" x1="224.7" y1="238.5" x2="196.9" y2="210.7"/>
</g>
<g id="_x35_Legs">
	<line id="XMLID_12_" class="st4" x1="196" y1="270" x2="168.2" y2="297.9"/>
	<line id="XMLID_10_" class="st4" x1="224.4" y1="297.9" x2="196.5" y2="270"/>
	
		<ellipse id="XMLID_13_" transform="matrix(-0.9513 -0.3082 0.3082 -0.9513 225.6336 636.7578)" class="st5" cx="163.1" cy="300.6" rx="9" ry="5"/>
	
		<ellipse id="XMLID_15_" transform="matrix(-0.8906 0.4547 -0.4547 -0.8906 571.2405 464.3868)" class="st5" cx="229.8" cy="300.9" rx="9" ry="5"/>
</g>
<g id="DeadMask" class="st0">
	<ellipse id="XMLID_16_" class="st6" cx="197.8" cy="160" rx="19.2" ry="10.7"/>
	<g id="XMLID_18_" class="st2">
		<line id="XMLID_17_" class="st4" x1="178.3" y1="155.3" x2="189.7" y2="167.7"/>
		<line id="XMLID_19_" class="st4" x1="178.2" y1="167.5" x2="190.5" y2="156.2"/>
	</g>
	<g id="XMLID_21_" class="st2">
		<line id="XMLID_24_" class="st4" x1="214.3" y1="155.7" x2="203" y2="168"/>
		<line id="XMLID_23_" class="st4" x1="202.2" y1="156.5" x2="214.5" y2="167.8"/>
	</g>
</g>
</svg>
